<svg width="338" height="83" viewBox="0 0 338 83" fill="none" xmlns="http://www.w3.org/2000/svg">
<rect width="338" height="83" fill="#1E1E1E"/>
<rect width="82" height="83" rx="20" fill="white"/>
<path d="M47.88 64L38.536 47.04H35.912V64H24.968V19.072H43.336C46.8773 19.072 49.8853 19.6907 52.36 20.928C54.8773 22.1653 56.7547 23.872 57.992 26.048C59.2293 28.1813 59.848 30.5707 59.848 33.216C59.848 36.2027 58.9947 38.8693 57.288 41.216C55.624 43.5627 53.1493 45.2267 49.864 46.208L60.232 64H47.88ZM35.912 39.296H42.696C44.7013 39.296 46.1947 38.8053 47.176 37.824C48.2 36.8427 48.712 35.456 48.712 33.664C48.712 31.9573 48.2 30.6133 47.176 29.632C46.1947 28.6507 44.7013 28.16 42.696 28.16H35.912V39.296Z" fill="#FF208B"/>
<path d="M125.88 64L116.536 47.04H113.912V64H102.968V19.072H121.336C124.877 19.072 127.885 19.6907 130.36 20.928C132.877 22.1653 134.755 23.872 135.992 26.048C137.229 28.1813 137.848 30.5707 137.848 33.216C137.848 36.2027 136.995 38.8693 135.288 41.216C133.624 43.5627 131.149 45.2267 127.864 46.208L138.232 64H125.88ZM113.912 39.296H120.696C122.701 39.296 124.195 38.8053 125.176 37.824C126.2 36.8427 126.712 35.456 126.712 33.664C126.712 31.9573 126.2 30.6133 125.176 29.632C124.195 28.6507 122.701 28.16 120.696 28.16H113.912V39.296ZM155.662 27.84V36.928H170.318V45.376H155.662V55.232H172.238V64H144.718V19.072H172.238V27.84H155.662ZM209.167 33.28C208.356 31.7867 207.183 30.656 205.647 29.888C204.154 29.0773 202.383 28.672 200.335 28.672C196.794 28.672 193.956 29.8453 191.823 32.192C189.69 34.496 188.623 37.5893 188.623 41.472C188.623 45.6107 189.732 48.8533 191.951 51.2C194.212 53.504 197.306 54.656 201.231 54.656C203.919 54.656 206.18 53.9733 208.015 52.608C209.892 51.2427 211.258 49.28 212.111 46.72H198.223V38.656H222.031V48.832C221.22 51.5627 219.834 54.1013 217.871 56.448C215.951 58.7947 213.498 60.6933 210.511 62.144C207.524 63.5947 204.154 64.32 200.399 64.32C195.962 64.32 191.994 63.36 188.495 61.44C185.039 59.4773 182.33 56.768 180.367 53.312C178.447 49.856 177.487 45.9093 177.487 41.472C177.487 37.0347 178.447 33.088 180.367 29.632C182.33 26.1333 185.039 23.424 188.495 21.504C191.951 19.5413 195.898 18.56 200.335 18.56C205.711 18.56 210.234 19.8613 213.903 22.464C217.615 25.0667 220.068 28.672 221.263 33.28H209.167ZM239.037 19.072V64H228.093V19.072H239.037ZM287.16 64H276.216L257.912 36.288V64H246.968V19.072H257.912L276.216 46.912V19.072H287.16V64ZM323.061 56.064H306.293L303.605 64H292.149L308.405 19.072H321.077L337.333 64H325.749L323.061 56.064ZM320.245 47.616L314.677 31.168L309.173 47.616H320.245Z" fill="#303031"/>
</svg>
